<svg xmlns="http://www.w3.org/2000/svg" width="72" height="72" viewBox="589 89 72 72"><desc>  Created with Sketch.</desc><g fill="none"><rect x="589" y="89" width="72" height="72" rx="2.4"/><g fill="#6E8FB0"><path d="M636.6 108L636.8 108C636.8 108 636.6 108 636.4 108.1 636.1 108.1 635.6 108.2 635.2 108.3 633.9 108.6 632.7 109.1 631.5 109.6L631.3 109.7C626 111.7 623.2 111.7 618.3 109.7L618.1 109.6C617.7 109.4 617.3 109.2 616.8 109 616 108.7 615 108.4 614.1 108.2 613.5 108.1 613.1 108 612.9 108L613.1 108C605.7 108 600 117.6 597.9 129.1L597.8 129.2C597.7 129.9 597.4 131 597.3 132.3 597 134.1 596.9 136 597 137.6 597.3 141.8 598.7 143.9 601.6 144 602.4 144.1 603.5 143.5 604.9 142.3 605.9 141.5 606.9 140.5 608.2 139.1 608.5 138.7 609.7 137.4 610 137.2 610.6 136.4 611.2 135.9 611.7 135.4 615.6 131.1 619.1 129.3 624.6 129.3 630.3 129.3 634.3 131.3 637.8 135.6L637.6 135.4C638.1 135.9 638.6 136.4 639.3 137.2 639.4 137.3 640.7 138.7 641.1 139.1 643.2 141.3 644.6 142.7 646 143.4 646.8 143.9 647.5 144 648 144 651.1 143.8 652.6 141.6 652.9 137.5 653.1 135.8 653 134 652.7 132.2 652.6 131 652.4 129.9 652.2 129.2 649.4 116.7 644.2 108 636.6 108ZM648.2 146C644.1 146.4 639.6 140.1 636.2 136.8 633.2 133.1 629.9 131.3 624.6 131.3 619.4 131.3 616.4 133.1 613.1 136.8 609.7 140.1 605.2 146.4 601.5 146 592.2 145.6 595.5 130.2 595.9 128.7 597.4 120.7 602.6 106 613.1 106 613.1 106 616.4 106.4 619 107.8 623.5 109.7 625.8 109.7 630.6 107.8 633.6 106.4 636.6 106 636.6 106 647.4 106 652.3 120.3 654.1 128.7 654.5 130.2 657.9 145.3 648.2 146Z"/><path d="M613 120L613 117.5C613 116.7 612.3 116 611.5 116 610.7 116 610 116.7 610 117.5L610 120 607.5 120C606.7 120 606 120.7 606 121.5 606 122.3 606.7 123 607.5 123L610 123 610 125.5C610 126.3 610.7 127 611.5 127 612.3 127 613 126.3 613 125.5L613 123 615.5 123C616.3 123 617 122.3 617 121.5 617 120.7 616.3 120 615.5 120L613 120ZM641.5 119C642.9 119 644 120.1 644 121.5 644 122.9 642.9 124 641.5 124 640.1 124 639 122.9 639 121.5 639 120.1 640.1 119 641.5 119ZM633.5 119C634.9 119 636 120.1 636 121.5 636 122.9 634.9 124 633.5 124 632.1 124 631 122.9 631 121.5 631 120.1 632.1 119 633.5 119Z"/><path d="M625.3 105.6C626.2 104.7 626.3 103.2 625.2 101.5 622 96.6 625.1 94 625.1 94 624.6 94.1 624.1 94.4 623.5 94.9 621.6 96.5 621.4 99.1 623.5 102.6 624.1 103.6 624.6 106 624.6 106 624.8 105.9 625.1 105.8 625.3 105.6Z"/></g></g></svg>