<svg width="72px" height="72px" viewBox="60 192 72 72" version="1.1" xmlns="http://www.w3.org/2000/svg" xmlns:xlink="http://www.w3.org/1999/xlink">
    <g id="devAPI" stroke="none" stroke-width="1" fill="none" fill-rule="evenodd" transform="translate(60.000000, 192.000000)">
        <rect id="Rectangle-183" x="0" y="0" width="72" height="72"/>
        <g id="4-copy" transform="translate(9.000000, 9.000000)">
            <path d="M29.554282,50.6882023 C29.8810525,50.7592641 30.267569,50.8920656 30.4557772,51.1367676 C30.8166362,51.6059443 31.1110299,53.1660602 31.1110299,53.1660602 C31.1727142,53.4501168 31.4555531,53.6390338 31.7452562,53.5827213 L32.7748884,53.382581 C33.0690383,53.3254041 33.2588224,53.0519726 33.2087153,52.7699241 C33.2087153,52.7699241 32.8953761,51.2018782 33.0542021,50.6316849 C33.1413358,50.3188707 33.4782885,50.0386573 33.7647285,49.8494233 C33.9012,49.8090825 34.037161,49.7675524 34.1725996,49.724845 C34.4979528,49.7361407 34.8782663,49.7963813 35.099795,49.9919254 C35.5435471,50.3836269 36.1302161,51.8589061 36.1302161,51.8589061 C36.2449676,52.1259739 36.5586571,52.2574518 36.8322926,52.1468958 L37.804819,51.7539697 C38.0826546,51.6417168 38.2167787,51.3370965 38.1137747,51.0697909 C38.1137747,51.0697909 37.5069953,49.5903423 37.5541052,49.0003197 C37.580993,48.6635661 37.8800315,48.309857 38.1318036,48.068245 C38.2107612,48.0264398 38.2894555,47.9842036 38.3678835,47.9415397 C38.7049939,47.8720941 39.1447475,47.8306067 39.4291573,47.991092 C39.9446517,48.2819726 40.8252284,49.6030381 40.8252284,49.6030381 C40.9929988,49.8404117 41.3271692,49.9037967 41.5718392,49.7387647 L42.4414196,49.1522253 C42.6898452,48.9846601 42.7577042,48.6588106 42.6013752,48.418762 C42.6013752,48.418762 41.7002607,47.0977994 41.6236685,46.5108755 C41.5835741,46.203633 41.7644511,45.8348394 41.9459387,45.55313 C42.0487016,45.4702421 42.1507618,45.3865179 42.2521088,45.3019677 C42.5675066,45.1725023 42.9806109,45.0547924 43.2842532,45.1560065 C43.8457792,45.3431818 44.9622484,46.4719536 44.9622484,46.4719536 C45.1722294,46.6729539 45.5123545,46.6714116 45.7210397,46.4627265 L46.4627265,45.7210397 C46.6746148,45.5091513 46.6790521,45.1763404 46.4797918,44.9705312 C46.4797918,44.9705312 45.3431818,43.8457792 45.1560065,43.2842532 C45.0547924,42.9806109 45.1725023,42.5675066 45.3019677,42.2521088 C45.3865179,42.1507618 45.4702421,42.0487016 45.55313,41.9459387 C45.8348394,41.7644511 46.203633,41.5835741 46.5108755,41.6236685 C47.0977994,41.7002607 48.4091357,42.5952615 48.4091357,42.5952615 C48.6536115,42.7525025 48.9871933,42.6860897 49.1522253,42.4414196 L49.7387647,41.5718392 C49.9063299,41.3234136 49.8471822,40.9958707 49.6123127,40.8318634 C49.6123127,40.8318634 48.2819726,39.9446517 47.991092,39.4291573 C47.8306067,39.1447475 47.8720941,38.7049939 47.9415397,38.3678835 C48.0078743,38.2459423 48.0731748,38.1233572 48.1374295,38.00014 C48.3758873,37.7770972 48.6889047,37.5487842 48.9851663,37.5303264 C49.5759212,37.493521 51.0339388,38.1218633 51.0339388,38.1218633 C51.3039258,38.2295672 51.6187066,38.1007242 51.7340213,37.8290598 L52.1438606,36.8635391 C52.2609453,36.5877048 52.1403862,36.2774657 51.8785379,36.1612869 C51.8785379,36.1612869 50.4033519,35.5442166 50.0194546,35.0936959 C49.8015325,34.8379546 49.7621122,34.3799915 49.7687601,34.0318007 C49.7961542,33.9429972 49.823043,33.853972 49.8494233,33.7647285 C50.0386573,33.4782885 50.3188707,33.1413358 50.6316849,33.0542021 C51.2018782,32.8953761 52.7586743,33.2068488 52.7586743,33.2068488 C53.0451543,33.2560656 53.3262684,33.0645915 53.382581,32.7748884 L53.5827213,31.7452562 C53.6398982,31.4511063 53.4574713,31.1727123 53.17719,31.1135136 C53.17719,31.1135136 51.6059443,30.8166362 51.1367676,30.4557772 C50.8920656,30.267569 50.7592641,29.8810525 50.6882023,29.554282 C50.702398,29.4211037 50.7154964,29.2875975 50.7274881,29.1537725 C50.85903,28.8397834 51.0675144,28.4662428 51.3529412,28.3235294 C51.8823529,28.0588235 53.4699781,28.0675228 53.4699781,28.0675228 C53.7605857,28.0611725 54,27.8195771 54,27.5244518 L54,26.4755482 C54,26.1758929 53.7678047,25.9374224 53.4813774,25.9327916 C53.4813774,25.9327916 51.8823529,25.9411765 51.3529412,25.6764706 C51.0675144,25.5337572 50.85903,25.1602166 50.7274881,24.8462275 C50.7154964,24.7124025 50.702398,24.5788963 50.6882023,24.445718 C50.7592641,24.1189475 50.8920656,23.732431 51.1367676,23.5442228 C51.6059443,23.1833638 53.1660602,22.8889701 53.1660602,22.8889701 C53.4501168,22.8272858 53.6390338,22.5444469 53.5827213,22.2547438 L53.382581,21.2251116 C53.3254041,20.9309617 53.0519726,20.7411776 52.7699241,20.7912847 C52.7699241,20.7912847 51.2018782,21.1046239 50.6316849,20.9457979 C50.3188707,20.8586642 50.0386573,20.5217115 49.8494233,20.2352715 C49.8090825,20.0988 49.7675524,19.962839 49.724845,19.8274004 C49.7361407,19.5020472 49.7963813,19.1217337 49.9919254,18.900205 C50.3836269,18.4564529 51.8589061,17.8697839 51.8589061,17.8697839 C52.1259739,17.7550324 52.2574518,17.4413429 52.1468958,17.1677074 L51.7539697,16.195181 C51.6417168,15.9173454 51.3370965,15.7832213 51.0697909,15.8862253 C51.0697909,15.8862253 49.5903423,16.4930047 49.0003197,16.4458948 C48.6635661,16.419007 48.309857,16.1199685 48.068245,15.8681964 C48.0264398,15.7892388 47.9842036,15.7105445 47.9415397,15.6321165 C47.8720941,15.2950061 47.8306067,14.8552525 47.991092,14.5708427 C48.2819726,14.0553483 49.6030381,13.1747716 49.6030381,13.1747716 C49.8404117,13.0070012 49.9037967,12.6728308 49.7387647,12.4281608 L49.1522253,11.5585804 C48.9846601,11.3101548 48.6588106,11.2422958 48.418762,11.3986248 C48.418762,11.3986248 47.0977994,12.2997393 46.5108755,12.3763315 C46.203633,12.4164259 45.8348394,12.2355489 45.55313,12.0540613 C45.4702421,11.9512984 45.3865179,11.8492382 45.3019677,11.7478912 C45.1725023,11.4324934 45.0547924,11.0193891 45.1560065,10.7157468 C45.3431818,10.1542208 46.4719536,9.03775165 46.4719536,9.03775165 C46.6729539,8.8277706 46.6714116,8.48764546 46.4627265,8.2789603 L45.7210397,7.53727351 C45.5091513,7.32538516 45.1763404,7.32094793 44.9705312,7.52020815 C44.9705312,7.52020815 43.8457792,8.65681821 43.2842532,8.84399353 C42.9806109,8.94520764 42.5675066,8.82749769 42.2521088,8.69803231 C42.1507618,8.61348208 42.0487016,8.52975785 41.9459387,8.44686996 C41.7644511,8.16516058 41.5835741,7.796367 41.6236685,7.48912448 C41.7002607,6.90220059 42.5952615,5.59086429 42.5952615,5.59086429 C42.7525025,5.34638854 42.6860897,5.01280673 42.4414196,4.84777471 L41.5718392,4.2612353 C41.3234136,4.09367014 40.9958707,4.15281776 40.8318634,4.38768726 C40.8318634,4.38768726 39.9446517,5.71802738 39.4291573,6.00890797 C39.1447475,6.16939331 38.7049939,6.12790595 38.3678835,6.05846025 C38.2459423,5.9921257 38.1233572,5.92682518 38.00014,5.86257045 C37.7770972,5.62411272 37.5487842,5.31109535 37.5303264,5.01483369 C37.493521,4.42407876 38.1218633,2.96606121 38.1218633,2.96606121 C38.2295672,2.69607416 38.1007242,2.38129336 37.8290598,2.26597868 L36.8635391,1.85613943 C36.5877048,1.73905474 36.2774657,1.85961378 36.1612869,2.12146214 C36.1612869,2.12146214 35.5442166,3.59664814 35.0936959,3.98054541 C34.8379546,4.19846747 34.3799915,4.23788775 34.0318007,4.23123985 C33.9429972,4.20384578 33.853972,4.17695695 33.7647285,4.15057673 C33.4782885,3.96134272 33.1413358,3.6811293 33.0542021,3.36831508 C32.8953761,2.79812183 33.2068488,1.24132575 33.2068488,1.24132575 C33.2560656,0.954845659 33.0645915,0.673731551 32.7748884,0.617418974 L31.7452562,0.417278747 C31.4511063,0.360101805 31.1727123,0.542528677 31.1135136,0.822809957 C31.1135136,0.822809957 30.8166362,2.39405572 30.4557772,2.86323244 C30.267569,3.1079344 29.8810525,3.24073593 29.554282,3.31179773 C29.4211037,3.29760197 29.2875975,3.28450362 29.1537725,3.27251189 C28.8397834,3.14096996 28.4662428,2.9324856 28.3235294,2.64705882 C28.0588235,2.11764706 28.0675228,0.53002192 28.0675228,0.53002192 C28.0611725,0.239414261 27.8195771,0 27.5244518,0 L26.4755482,0 C26.1758929,0 25.9374224,0.232195259 25.9327916,0.518622626 C25.9327916,0.518622626 25.9411765,2.11764706 25.6764706,2.64705882 C25.5337572,2.9324856 25.1602166,3.14096996 24.8462275,3.27251189 C24.7124025,3.28450362 24.5788963,3.29760197 24.445718,3.31179773 C24.1189475,3.24073593 23.732431,3.1079344 23.5442228,2.86323244 C23.1833638,2.39405572 22.8889701,0.833939823 22.8889701,0.833939823 C22.8272858,0.549883155 22.5444469,0.36096617 22.2547438,0.417278747 L21.2251116,0.617418974 C20.9309617,0.674595916 20.7411776,0.9480274 20.7912847,1.2300759 C20.7912847,1.2300759 21.1046239,2.79812183 20.9457979,3.36831508 C20.8586642,3.6811293 20.5217115,3.96134272 20.2352715,4.15057673 C20.0988,4.19091747 19.962839,4.23244756 19.8274004,4.27515499 C19.5020472,4.26385931 19.1217337,4.20361872 18.900205,4.0080746 C18.4564529,3.61637313 17.8697839,2.14109391 17.8697839,2.14109391 C17.7550324,1.87402608 17.4413429,1.74254824 17.1677074,1.85310416 L16.195181,2.24603033 C15.9173454,2.35828321 15.7832213,2.66290351 15.8862253,2.93020909 C15.8862253,2.93020909 16.4930047,4.40965768 16.4458948,4.99968029 C16.419007,5.33643386 16.1199685,5.69014304 15.8681964,5.93175496 C15.7892388,5.97356024 15.7105445,6.01579638 15.6321165,6.05846025 C15.2950061,6.12790595 14.8552525,6.16939331 14.5708427,6.00890797 C14.0553483,5.71802738 13.1747716,4.39696189 13.1747716,4.39696189 C13.0070012,4.15958831 12.6728308,4.09620329 12.4281608,4.2612353 L11.5585804,4.84777471 C11.3101548,5.01533987 11.2422958,5.34118945 11.3986248,5.58123804 C11.3986248,5.58123804 12.2997393,6.90220059 12.3763315,7.48912448 C12.4164259,7.796367 12.2355489,8.16516058 12.0540613,8.44686996 C11.9512984,8.52975785 11.8492382,8.61348208 11.7478912,8.69803231 C11.4324934,8.82749769 11.0193891,8.94520764 10.7157468,8.84399353 C10.1542208,8.65681821 9.03775165,7.52804636 9.03775165,7.52804636 C8.8277706,7.32704611 8.48764546,7.32858836 8.2789603,7.53727351 L7.53727351,8.2789603 C7.32538516,8.49084866 7.32094793,8.82365957 7.52020815,9.02946881 C7.52020815,9.02946881 8.65681821,10.1542208 8.84399353,10.7157468 C8.94520764,11.0193891 8.82749769,11.4324934 8.69803231,11.7478912 C8.61348208,11.8492382 8.52975785,11.9512984 8.44686996,12.0540613 C8.16516058,12.2355489 7.796367,12.4164259 7.48912448,12.3763315 C6.90220059,12.2997393 5.59086429,11.4047385 5.59086429,11.4047385 C5.34638854,11.2474975 5.01280673,11.3139103 4.84777471,11.5585804 L4.2612353,12.4281608 C4.09367014,12.6765864 4.15281776,13.0041293 4.38768726,13.1681366 C4.38768726,13.1681366 5.71802738,14.0553483 6.00890797,14.5708427 C6.16939331,14.8552525 6.12790595,15.2950061 6.05846025,15.6321165 C5.9921257,15.7540577 5.92682518,15.8766428 5.86257045,15.99986 C5.62411272,16.2229028 5.31109535,16.4512158 5.01483369,16.4696736 C4.42407876,16.506479 2.96606121,15.8781367 2.96606121,15.8781367 C2.69607416,15.7704328 2.38129336,15.8992758 2.26597868,16.1709402 L1.85613943,17.1364609 C1.73905474,17.4122952 1.85961378,17.7225343 2.12146214,17.8387131 C2.12146214,17.8387131 3.59664814,18.4557834 3.98054541,18.9063041 C4.19846747,19.1620454 4.23788775,19.6200085 4.23123985,19.9681993 C4.20384578,20.0570028 4.17695695,20.146028 4.15057673,20.2352715 C3.96134272,20.5217115 3.6811293,20.8586642 3.36831508,20.9457979 C2.79812183,21.1046239 1.24132575,20.7931512 1.24132575,20.7931512 C0.954845659,20.7439344 0.673731551,20.9354085 0.617418974,21.2251116 L0.417278747,22.2547438 C0.360101805,22.5488937 0.542528677,22.8272877 0.822809957,22.8864864 C0.822809957,22.8864864 2.39405572,23.1833638 2.86323244,23.5442228 C3.1079344,23.732431 3.24073593,24.1189475 3.31179773,24.445718 C3.29760197,24.5788963 3.28450362,24.7124025 3.27251189,24.8462275 C3.14096996,25.1602166 2.9324856,25.5337572 2.64705882,25.6764706 C2.11764706,25.9411765 0.53002192,25.9324772 0.53002192,25.9324772 C0.239414261,25.9388275 -5.42136525e-17,26.1804229 0,26.4755482 L1.92680451e-16,27.5244518 C2.47726252e-16,27.8241071 0.232195259,28.0625776 0.518622626,28.0672084 C0.518622626,28.0672084 2.11764706,28.0588235 2.64705882,28.3235294 C2.9324856,28.4662428 3.14096996,28.8397834 3.27251189,29.1537725 C3.28450362,29.2875975 3.29760197,29.4211037 3.31179773,29.554282 C3.24073593,29.8810525 3.1079344,30.267569 2.86323244,30.4557772 C2.39405572,30.8166362 0.833939823,31.1110299 0.833939823,31.1110299 C0.549883155,31.1727142 0.36096617,31.4555531 0.417278747,31.7452562 L0.617418974,32.7748884 C0.674595916,33.0690383 0.9480274,33.2588224 1.2300759,33.2087153 C1.2300759,33.2087153 2.79812183,32.8953761 3.36831508,33.0542021 C3.6811293,33.1413358 3.96134272,33.4782885 4.15057673,33.7647285 C4.17695695,33.853972 4.20384578,33.9429972 4.23123985,34.0318007 C4.23788775,34.3799915 4.19846747,34.8379546 3.98054541,35.0936959 C3.59664814,35.5442166 2.1318324,36.1565434 2.1318324,36.1565434 C1.86680793,36.2759384 1.74082475,36.5918747 1.85613943,36.8635391 L2.26597868,37.8290598 C2.38306337,38.1048941 2.68997806,38.2336814 2.95544526,38.126028 C2.95544526,38.126028 4.42407876,37.493521 5.01483369,37.5303264 C5.31109535,37.5487842 5.62411272,37.7770972 5.86257045,38.00014 C5.92682518,38.1233572 5.9921257,38.2459423 6.05846025,38.3678835 C6.12790595,38.7049939 6.16939331,39.1447475 6.00890797,39.4291573 C5.71802738,39.9446517 4.39696189,40.8252284 4.39696189,40.8252284 C4.15958831,40.9929988 4.09620329,41.3271692 4.2612353,41.5718392 L4.84777471,42.4414196 C5.01533987,42.6898452 5.34118945,42.7577042 5.58123804,42.6013752 C5.58123804,42.6013752 6.90220059,41.7002607 7.48912448,41.6236685 C7.796367,41.5835741 8.16516058,41.7644511 8.44686996,41.9459387 C8.52975785,42.0487016 8.61348208,42.1507618 8.69803231,42.2521088 C8.82749769,42.5675066 8.94520764,42.9806109 8.84399353,43.2842532 C8.65681821,43.8457792 7.52804636,44.9622484 7.52804636,44.9622484 C7.32704611,45.1722294 7.32858836,45.5123545 7.53727351,45.7210397 L8.2789603,46.4627265 C8.49084866,46.6746148 8.82365957,46.6790521 9.02946881,46.4797918 C9.02946881,46.4797918 10.1542208,45.3431818 10.7157468,45.1560065 C11.0193891,45.0547924 11.4324934,45.1725023 11.7478912,45.3019677 C11.8492382,45.3865179 11.9512984,45.4702421 12.0540613,45.55313 C12.2355489,45.8348394 12.4164259,46.203633 12.3763315,46.5108755 C12.2997393,47.0977994 11.4047385,48.4091357 11.4047385,48.4091357 C11.2474975,48.6536115 11.3139103,48.9871933 11.5585804,49.1522253 L12.4281608,49.7387647 C12.6765864,49.9063299 13.0041293,49.8471822 13.1681366,49.6123127 C13.1681366,49.6123127 14.0553483,48.2819726 14.5708427,47.991092 C14.8552525,47.8306067 15.2950061,47.8720941 15.6321165,47.9415397 C15.7540577,48.0078743 15.8766428,48.0731748 15.99986,48.1374295 C16.2229028,48.3758873 16.4512158,48.6889047 16.4696736,48.9851663 C16.506479,49.5759212 15.8781367,51.0339388 15.8781367,51.0339388 C15.7704328,51.3039258 15.8992758,51.6187066 16.1709402,51.7340213 L17.1364609,52.1438606 C17.4122952,52.2609453 17.7225343,52.1403862 17.8387131,51.8785379 C17.8387131,51.8785379 18.4557834,50.4033519 18.9063041,50.0194546 C19.1620454,49.8015325 19.6200085,49.7621122 19.9681993,49.7687601 C20.0570028,49.7961542 20.146028,49.823043 20.2352715,49.8494233 C20.5217115,50.0386573 20.8586642,50.3188707 20.9457979,50.6316849 C21.1046239,51.2018782 20.7931512,52.7586743 20.7931512,52.7586743 C20.7439344,53.0451543 20.9354085,53.3262684 21.2251116,53.382581 L22.2547438,53.5827213 C22.5488937,53.6398982 22.8272877,53.4574713 22.8864864,53.17719 C22.8864864,53.17719 23.1833638,51.6059443 23.5442228,51.1367676 C23.732431,50.8920656 24.1189475,50.7592641 24.445718,50.6882023 C24.5788963,50.702398 24.7124025,50.7154964 24.8462275,50.7274881 C25.1602166,50.85903 25.5337572,51.0675144 25.6764706,51.3529412 C25.9411765,51.8823529 25.9324772,53.4699781 25.9324772,53.4699781 C25.9388275,53.7605857 26.1804229,54 26.4755482,54 L27.5244518,54 C27.8241071,54 28.0625776,53.7678047 28.0672084,53.4813774 C28.0672084,53.4813774 28.0588235,51.8823529 28.3235294,51.3529412 C28.4662428,51.0675144 28.8397834,50.85903 29.1537725,50.7274881 C29.2875975,50.7154964 29.4211037,50.702398 29.554282,50.6882023 Z M27,46.6363636 C37.8448642,46.6363636 46.6363636,37.8448642 46.6363636,27 C46.6363636,16.1551358 37.8448642,7.36363636 27,7.36363636 C16.1551358,7.36363636 7.36363636,16.1551358 7.36363636,27 C7.36363636,37.8448642 16.1551358,46.6363636 27,46.6363636 L27,46.6363636 Z" id="Combined-Shape" fill="#7595B4"/>
            <path d="M38.9169918,29.9454545 C37.5977474,35.3009253 32.7627057,39.2727273 27,39.2727273 C25.7227211,39.2727273 24.4910153,39.0776053 23.3330643,38.7155429 L24.8065777,36.5722506 C25.5118274,36.7331852 26.2459877,36.8181818 27,36.8181818 C31.3962301,36.8181818 35.117608,33.9287959 36.3687032,29.9454545 L38.9169918,29.9454545 Z M38.9169918,24.0545455 C37.5977474,18.6990747 32.7627057,14.7272727 27,14.7272727 C25.8251051,14.7272727 24.6887701,14.8923673 23.6129283,15.2006231 L25.1011411,17.3652962 C25.7154965,17.2449085 26.3503805,17.1818182 27,17.1818182 C31.3962301,17.1818182 35.117608,20.0712041 36.3687032,24.0545455 L38.9169918,24.0545455 Z M17.8640723,35.1949617 C15.9137231,33.0221191 14.7272727,30.1496147 14.7272727,27 C14.7272727,23.7493777 15.9910418,20.7939245 18.0540573,18.598163 C18.5035741,19.2693946 18.9925909,19.9941441 19.4700871,20.699071 C18.0417441,22.4041949 17.1818182,24.6016742 17.1818182,27 C17.1818182,29.2950343 17.9692684,31.4061498 19.2887252,33.0779029 C18.8012246,33.7983541 18.3084782,34.5297165 17.8640723,35.1949617 Z" id="Combined-Shape" fill="#7495B4"/>
            <rect id="Rectangle-2" fill="#6E8FB0" x="26.5" y="26" width="22" height="2" rx="1"/>
            <path d="M27.5,27 L14,10" id="Path-10" stroke="#6E8FB0" stroke-width="2"/>
            <path d="M27.5,44 L14,27" id="Path-10-Copy" stroke="#6E8FB0" stroke-width="2" transform="translate(20.750000, 35.500000) scale(1, -1) translate(-20.750000, -35.500000) "/>
        </g>
    </g>
</svg>