<svg width="72px" height="72px" viewBox="324 192 72 72" version="1.1" xmlns="http://www.w3.org/2000/svg" xmlns:xlink="http://www.w3.org/1999/xlink">
  <g id="devMarket" stroke="none" stroke-width="1" fill="none" fill-rule="evenodd" transform="translate(324.000000, 192.000000)">
    <rect id="Rectangle-183" x="0" y="0" width="72" height="72"/>
    <path d="M44.9840389,21 L44.9840389,19.9942006 C44.9840389,15.0266167 40.9553878,11 35.9857949,11 C31.0151092,11 26.9875508,15.0268408 26.9875508,19.9942006 L26.9875508,21 L20.8216462,21 C20.3291498,21 19.9248804,21.3931468 19.8985779,21.8781179 L17.9871238,57.1218821 C17.9606773,57.6095075 18.3312399,58 18.8144769,58 L53.1851925,58 C53.666829,58 54.0388481,57.6068532 54.0125456,57.1218821 L52.1010915,21.8781179 C52.074645,21.3904925 51.6615172,21 51.1780231,21 L44.9840389,21 Z M41.9857918,21 L41.9857918,19.9970619 C41.9857918,16.6866258 39.2995003,14 35.9857918,14 C32.6788261,14 29.9857918,16.6849761 29.9857918,19.9970619 L29.9857918,21 L41.9857918,21 Z" id="market" fill="#7595B4"/>
  </g>
</svg>