<svg width="72px" height="72px" viewBox="192 192 72 72" version="1.1" xmlns="http://www.w3.org/2000/svg" xmlns:xlink="http://www.w3.org/1999/xlink">
    <g id="devComm" stroke="none" stroke-width="1" fill="none" fill-rule="evenodd" transform="translate(192.000000, 192.000000)">
        <rect id="Rectangle-183" x="0" y="0" width="72" height="72"/>
        <g id="contact_us" transform="translate(13.000000, 16.000000)" fill="#7595B4">
            <path d="M27,25 L34.992516,25 C35.5489341,25 36,24.5561352 36,24 L36,23 C36,20.5 32.0869565,19 28.5,19 C27.2865751,19 26.0358331,19.1716583 24.9118849,19.4956183 C26.1854114,20.5788974 27,21.9874299 27,23.6666667 L27,25 Z M23,36 L40.0099006,36 C43.3111444,36 46,33.3113255 46,29.9946773 L46,6.00532266 C46,2.67643992 43.3181411,0 40.0099006,0 L5.99009943,0 C2.68885565,0 0,2.68867454 0,6.00532266 L0,29.9946773 C0,33.3235601 2.68185887,36 5.99009943,36 L12,36 L12,43.0037973 C12,45.2108391 13.268867,45.731133 14.8236482,44.1763518 L23,36 Z M17.5058431,17 C19.4457429,17 21,15.4366667 21,13.5 C21,11.5633333 19.4457429,10 17.5058431,10 C15.5659432,10 14,11.5633333 14,13.5 C14,15.4366667 15.5659432,17 17.5058431,17 Z M28.5058431,17 C30.4457429,17 32,15.4366667 32,13.5 C32,11.5633333 30.4457429,10 28.5058431,10 C26.5659432,10 25,11.5633333 25,13.5 C25,15.4366667 26.5659432,17 28.5058431,17 Z M10,23 L10,24 C10,24.5522847 10.4489202,25 11.007484,25 L23.992516,25 C24.5489341,25 25,24.5561352 25,24 L25,23 C25,20.5 21.0869565,19 17.5,19 C13.9130435,19 10,20.5 10,23 Z" id="Combined-Shape"/>
        </g>
    </g>
</svg>