<svg xmlns="http://www.w3.org/2000/svg" width="72" height="72" viewBox="774 89 72 72"><desc>  Created with Sketch.</desc><g fill="none"><rect x="774" y="89" width="72" height="72" rx="2.4"/><g fill="#6E8FB0"><path d="M781 148.6C781 148.8 781.2 149 781.4 149L838.6 149C838.8 149 839 148.8 839 148.6L839 101.4C839 101.2 838.8 101 838.6 101L781.4 101C781.2 101 781 101.2 781 101.4L781 148.6ZM781.4 99L838.6 99C839.9 99 841 100.1 841 101.4L841 148.6C841 149.9 839.9 151 838.6 151L781.4 151C780.1 151 779 149.9 779 148.6L779 101.4C779 100.1 780.1 99 781.4 99Z"/><rect x="780" y="110" width="60" height="2"/><path d="M785.5 107C786.3 107 787 106.3 787 105.5 787 104.7 786.3 104 785.5 104 784.7 104 784 104.7 784 105.5 784 106.3 784.7 107 785.5 107ZM790.5 107C791.3 107 792 106.3 792 105.5 792 104.7 791.3 104 790.5 104 789.7 104 789 104.7 789 105.5 789 106.3 789.7 107 790.5 107ZM795.5 107C796.3 107 797 106.3 797 105.5 797 104.7 796.3 104 795.5 104 794.7 104 794 104.7 794 105.5 794 106.3 794.7 107 795.5 107Z"/><rect x="795" y="124" width="6" height="3" rx="0.8"/><rect x="804" y="124" width="21" height="3" rx="0.8"/><rect x="795" y="130" width="25" height="3" rx="0.8"/></g></g></svg>